<svg fill="rgb(42,169,224)" xmlns="http://www.w3.org/2000/svg" viewBox="0 0 107.05 107.05" width="current" height="current">
  <defs fill="rgb(42,169,224)">
    <style fill="rgb(42,169,224)">.cls-1{fill:#213f21;}</style>
  </defs>
  <g fill="rgb(42,169,224)" id="Layer_2" data-name="Layer 2">
    <g id="Layer_1-2" data-name="Layer 1">
      <path fill="rgb(42,169,224)" class="cls-1" d="M107,52.49l-1,1L94.61,65.16,65.16,94.61a42.5,42.5,0,0,1-18.62,1L53,16.89a23.83,23.83,0,0,0-4.09.37c-.32,0-.62.11-.88.17-.94.19-1.51.37-1.51.37L10.82,53.19l-.33.33L.91,63.3c.13.72.28,1.42.44,2.12,0,.22.11.44.16.66.12.49.24,1,.37,1.45l.21.74c.13.47.27.93.42,1.39.07.23.14.46.22.69.19.57.39,1.13.6,1.69a3,3,0,0,0,.11.32c.25.66.51,1.3.78,1.94.09.22.19.43.28.64.19.44.38.87.58,1.3l.36.73c.19.4.39.8.6,1.19s.25.48.38.72c.23.43.47.85.71,1.28.11.18.21.37.32.56.34.57.7,1.14,1.06,1.7.14.23.3.46.45.68s.47.7.71,1,.36.52.55.77.44.61.67.91l.6.78.71.88c.21.24.4.49.61.73.41.48.83,1,1.25,1.42l.73.77c.23.24.45.48.68.71l.81.79.66.63.85.79.63.56c.31.27.62.54.94.8l.23.19q1.11.91,2.28,1.77l.5.37,1.09.76.58.39,1.12.73.54.32,1.22.74h0c1,.58,2,1.12,3.06,1.63l.25.12c.44.22.89.42,1.34.62l.51.23c.44.2.88.38,1.33.57l.5.2,1.42.54.1,0c.61.22,1.23.43,1.85.63l.92.28.72.22.6.17h0l1.57.4h0l.91.21h0l1.42.29h0l1.13.2h0l1.07.17h.06a54.38,54.38,0,0,0,7.81.58,53.58,53.58,0,0,0,53.53-53.52h0C107.05,53.18,107,52.84,107,52.49ZM35.79,92.16A43,43,0,0,1,13.08,66.6l5.27-5.38.27-.28L40.11,39.66Z"/>
      <path fill="rgb(42,169,224)" class="cls-1" d="M53.52,0A53.58,53.58,0,0,0,0,53.52H0c0,.13,0,.26,0,.39l.39-.4,9.7-9.89.39-.4,1.37-1.4L17.68,36,41,12.7a42.69,42.69,0,0,1,12.55-1.89,44,44,0,0,1,6.33.47L54,90.44a21.57,21.57,0,0,0,5.88-.86L96.23,53.21l9.81-10A53.62,53.62,0,0,0,53.52,0ZM88.58,46.34l-.27.27L66.82,67.9l4.32-52.5A43,43,0,0,1,93.85,41Z"/>
    </g>
  </g>
</svg>